<svg xmlns="http://www.w3.org/2000/svg" width="512" height="667.438" viewBox="0 0 512 667.43768">
  <path d="M233.328 664.05c-33.594-8.18-56.33-26.074-102.96-81.033-28.623-33.738-35.628-39.63-47.12-39.63-7.424 0-19.123-3.32-25.997-7.382-12.192-7.203-12.907-7.045-29.314 6.48-15.432 12.72-24.207 14.788-24.207 5.704 0-1.975 7.903-9.067 17.562-15.76 15.693-10.876 17.11-13.36 13.32-23.333-2.736-7.197-2.63-17.156.303-28.044 3.9-14.485 2.97-20.284-6.542-40.804-25.8-55.653-24.254-107.59 4.863-163.45 8.29-15.907 15.075-30.21 15.075-31.785 0-1.575-5.547-6.14-12.328-10.147-32.335-19.1-43.334-38.008-31.138-53.523C16.787 166.152 28.1 167.87 57.2 189.29c29.644 21.823 31.224 21.943 55.076 4.183 7.816-5.82 6.934-8.62-17.295-54.91-20.826-39.79-27.067-48.376-33.863-46.598C48.543 95.253 30.48 81.41 30.48 68.485c0-11.98 14.057-28.876 24.025-28.876 12.73 0 26.948 16.47 27.097 31.388.138 13.787 3.18 16.482 55.874 49.482 30.65 19.196 57.243 34.933 59.096 34.972 1.852.04 14.7-22.693 28.548-50.515l25.18-50.585-9.6-9.6c-11.998-11.998-12.24-24.797-.685-36.35 11.766-11.767 20.365-11.25 33.64 2.026 13.655 13.655 13.624 16.393-.375 33.03l-11.317 13.45 24.73 49.307c13.6 27.12 26.034 49.308 27.63 49.308 1.597 0 30.325-17.037 63.84-37.86 57.72-35.862 60.84-38.53 59.075-50.55-1.166-7.95.905-15.46 5.544-20.098 15.204-15.203 42.514-4.685 42.367 16.318-.108 15.225-6.6 21.89-24.183 24.828-15.423 2.578-17.62 5.263-42.542 51.978l-26.28 49.26 14.718 11.743 14.717 11.745 30.168-21.994c16.592-12.096 32.47-21.993 35.285-21.993 2.814 0 9.575 3.123 15.025 6.94 20.13 14.1 9.272 36.907-28.763 60.413-8.155 5.04-14.827 10.034-14.827 11.097 0 1.063 5.935 12.45 13.19 25.304 29.327 51.967 33.33 106.538 11.736 160-10.066 24.92-10.354 27.81-4.224 42.48 5.14 12.3 5.506 18.802 1.68 29.74-4.6 13.14-3.935 14.774 10.88 26.69 26.43 21.26 18.004 29.697-9.05 9.062-12.642-9.643-16.496-10.705-22.068-6.08-3.714 3.082-14.74 5.604-24.504 5.604-17.058 0-19.148 1.706-53.424 43.626-19.62 23.995-43.813 50.596-53.765 59.114-25.645 21.95-60.585 29.686-95.592 21.163zm49.345-24.654c23.093-6.86 41.956-23.804 90.61-81.395 23.38-27.67 23.423-27.78 17.77-44.58-3.116-9.264-9.512-20.856-14.214-25.76-8.476-8.838-8.523-8.76-5.442 8.917 1.71 9.808 4.19 23.32 5.51 30.024 4.427 22.494-9.22 20.543-67.41-9.635l-53.88-27.942-50.98 27.35c-28.04 15.043-54.12 26.723-57.958 25.957-7.553-1.51-8.592-14.31-3.833-47.218 2.718-18.793 2.568-19.095-5.748-11.57-4.698 4.252-8.54 11.987-8.54 17.192 0 5.204-2.908 13.613-6.462 18.687-6.045 8.633-4.196 11.824 28.78 49.655 40.992 47.027 59.33 62.075 85.668 70.3 24.332 7.598 20.627 7.596 46.127.022zM105.428 520.923c22.102-20.59 7.03-62.24-22.52-62.24-18.333 0-28.486 6.676-33.94 22.32-8.475 24.316 3.066 36.54 13.65 14.46 6.758-14.1 24.237-16.76 31.76-4.833 6.012 9.53-3.152 21.522-16.52 21.62-5.216.035-12.494 2.042-16.172 4.457-5.944 3.902-5.944 4.878 0 8.78 11.25 7.385 33.396 5.075 43.742-4.564zm350.34.106c2.307-2.254-1.454-5.098-8.915-6.745-21.478-4.74-24.144-6.076-27-13.52-3.668-9.558 12.42-25.468 22.024-21.782 4.034 1.548 8.66 7.143 10.28 12.433 4.838 15.807 11.515 22.284 15.88 15.403 6.674-10.52 3.955-24.383-7.127-36.34-30.303-32.698-83.055 4.82-57.693 41.03 12.08 17.248 39.546 22.223 52.552 9.52zm-242.365-36.554l43.586-23.246L302 484.77c24.757 12.945 45.032 21.9 45.057 19.9.022-2-3.364-25.137-7.53-51.418l-7.572-47.782 36.666-34.164c20.167-18.79 35.978-34.854 35.135-35.696-.843-.843-23.128-4.564-49.522-8.27-26.395-3.704-49.385-7.598-51.09-8.652-1.706-1.054-12.093-21.113-23.083-44.577-10.99-23.462-21.075-42.69-22.41-42.728-1.334-.038-11.365 18.247-22.29 40.633-10.926 22.387-23.878 43.226-28.782 46.31-4.904 3.085-21.956 6.917-37.895 8.517-15.938 1.6-35.696 4.092-43.908 5.538l-14.93 2.63 36.703 36.893 36.702 36.893-8.864 49.463c-4.876 27.204-7.898 49.462-6.717 49.462 1.18 0 21.76-10.46 45.733-23.246zM83.977 496.84c0-1.082-2.006-3.206-4.458-4.722-2.453-1.515-4.46-.63-4.46 1.966 0 2.597 2.007 4.722 4.46 4.722 2.45 0 4.457-.885 4.457-1.966zm356.658-2.493c0-2.452-2.006-4.458-4.458-4.458-2.452 0-4.46 2.005-4.46 4.457s2.008 4.46 4.46 4.46 4.458-2.008 4.458-4.46zM127.72 429.464l23.22-17.335-40.168-40.338c-22.093-22.186-40.17-43.687-40.17-47.782 0-5.472 5.613-8.272 21.177-10.565 41.31-6.087 41.692-7.203 10.378-30.255-32.57-23.977-34.018-23.605-52.123 13.4-15.887 32.473-19.197 76.07-8.283 109.11 12.63 38.24 16.253 41.89 41.122 41.468 17.86-.304 25.67-3.387 44.847-17.704zm334.936-12.184c16.126-47.752 9.682-102.69-16.71-142.456l-8.106-12.216-28.696 20.93-28.695 20.93 17.832 3.744c36.38 7.635 43.93 10.312 45.92 16.282 1.182 3.542-16.11 23.23-41.128 46.826l-43.166 40.714 24.18 17.75c21.905 16.082 26.307 17.608 46.78 16.225l22.6-1.527zm-238.55-179.626c19.2-40.237 26.37-51.294 32.53-50.155 4.916.908 17.493 19.98 33.304 50.5 13.973 26.972 27.39 48.58 29.814 48.018 2.425-.56 21.527-13.47 42.45-28.683 43.07-31.32 43.14-32.246 3.79-50.86-43.65-20.65-67.066-25.74-117.063-25.446-35.822.21-53.005 2.486-73.203 9.695-31.556 11.264-66.058 30.792-64.144 36.306 1.616 4.66 79.95 62.24 84.67 62.24 1.774 0 14.307-23.228 27.853-51.616zm-67.974-65.748l25.344-10.324-40.876-25.02c-22.48-13.763-41.51-24.388-42.283-23.614-.988.988 30.98 69.507 32.335 69.303.075-.01 11.54-4.665 25.48-10.344zm246.756-28.998c10.898-20.425 18.23-36.474 16.294-35.666-1.937.808-23.037 13.47-46.89 28.134l-43.368 26.665 21.304 9.798c11.718 5.388 23.9 9.44 27.075 9 3.174-.437 14.687-17.506 25.585-37.93zm-125.456-27.51c-11.047-22.068-20.956-40.123-22.02-40.123-1.063 0-11 18.055-22.084 40.124l-20.152 40.123h84.342zM69.012 72.99c3.062-7.978-5.774-20.004-14.7-20.004-7.59 0-12.378 10.858-8.847 20.062 3.337 8.693 20.205 8.653 23.547-.058zm404.393-4.272c2.088-5.44-7.197-20.19-12.708-20.19-.876 0-4.66 3.067-8.41 6.816-8.994 8.996-4.38 19.933 8.41 19.933 5.605 0 11.324-2.952 12.708-6.56zM264.17 36.903c9.983-3.83 8.76-18.442-1.824-21.802-11.172-3.544-17.873.45-17.873 10.654 0 12.972 6.04 16.39 19.698 11.15z" fill="#fff"/>
</svg>
